<svg id="_220_car_flatline" data-name="#220_car_flatline" xmlns="http://www.w3.org/2000/svg" viewBox="0 0 400 300" width="406" height="306" class="illustration styles_illustrationTablet__1DWOa"><path d="M174.89,138.11l-22.28.08.23,72.25,22.28-.08c8.71,0,15.72-16.23,15.65-36.18S183.6,138.08,174.89,138.11Z" fill="#231f20"></path><path d="M152.83,210.94a.53.53,0,0,1-.35-.15.51.51,0,0,1-.15-.35l-.22-72.25a.5.5,0,0,1,.5-.5l22.28-.08h0c4.41,0,8.53,3.85,11.61,10.84s4.71,16,4.74,25.73c.07,20.19-7.18,36.65-16.15,36.68l-22.28.08Zm.28-72.25.22,71.24,21.79-.07c8.42,0,15.22-16,15.15-35.68,0-9.58-1.68-18.58-4.65-25.33-2.91-6.6-6.71-10.24-10.7-10.24h0Z" fill="#231f20"></path><ellipse cx="152.72" cy="174.31" rx="15.77" ry="36.12" transform="translate(-0.53 0.47) rotate(-0.17)" fill="#231f20"></ellipse><path d="M152.81,210.94c-4.41,0-8.54-3.85-11.62-10.84s-4.71-16-4.74-25.73c-.06-20.19,7.19-36.65,16.16-36.68h0c4.42,0,8.54,3.85,11.62,10.84s4.71,16,4.74,25.73c.06,20.19-7.18,36.64-16.15,36.68Zm-.18-72.25h0c-8.42,0-15.22,16-15.16,35.68,0,9.58,1.69,18.57,4.66,25.32s6.71,10.25,10.7,10.25h0c8.42,0,15.22-16,15.16-35.68,0-9.58-1.68-18.58-4.66-25.33C160.43,142.33,156.63,138.69,152.63,138.69Z" fill="#231f20"></path><ellipse cx="152.72" cy="174.31" rx="12.03" ry="27.56" transform="translate(-0.53 0.47) rotate(-0.17)" fill="#fff"></ellipse><path d="M152.79,202.33c-3.4,0-6.57-3-8.93-8.32s-3.6-12.23-3.63-19.65c0-15.45,5.52-28,12.4-28.06h0c3.4,0,6.57,2.95,8.94,8.31s3.6,12.24,3.62,19.66h0c0,15.45-5.51,28-12.4,28.06Zm-.14-55.12h0c-6.39,0-11.54,12.2-11.49,27.14,0,7.3,1.28,14.15,3.54,19.3s5.09,7.77,8.1,7.77h0c6.38,0,11.53-12.2,11.48-27.15h0c0-7.3-1.28-14.15-3.54-19.29S155.67,147.21,152.65,147.21Z" fill="#231f20"></path><path d="M233.17,137.91l-22.28.07.23,72.25,22.28-.08c8.71,0,15.72-16.23,15.65-36.18S241.88,137.88,233.17,137.91Z" fill="#231f20"></path><path d="M211.12,210.73a.49.49,0,0,1-.36-.15.5.5,0,0,1-.14-.35L210.39,138a.51.51,0,0,1,.5-.51l22.28-.07h0c4.45,0,8.56,3.83,11.64,10.84s4.71,16,4.74,25.72c.07,20.2-7.18,36.65-16.15,36.68l-22.28.08Zm.27-72.25.22,71.25,21.79-.08c8.42,0,15.22-16,15.15-35.67,0-9.59-1.68-18.58-4.65-25.33s-6.71-10.24-10.7-10.24h0Z" fill="#231f20"></path><ellipse cx="211" cy="174.11" rx="15.77" ry="36.12" transform="translate(-0.53 0.64) rotate(-0.17)" fill="#231f20"></ellipse><path d="M211.09,210.73c-4.41,0-8.54-3.85-11.62-10.84s-4.71-16-4.74-25.72c-.06-20.2,7.19-36.65,16.16-36.69h0c4.42,0,8.54,3.85,11.62,10.84s4.71,16,4.74,25.73c.06,20.19-7.18,36.65-16.15,36.68Zm-.18-72.25h0c-8.42,0-15.22,16-15.16,35.68,0,9.58,1.69,18.58,4.66,25.33,2.91,6.6,6.71,10.24,10.7,10.24h0c8.42,0,15.22-16,15.16-35.68,0-9.58-1.68-18.57-4.65-25.32S214.91,138.48,210.91,138.48Z" fill="#231f20"></path><ellipse cx="211" cy="174.11" rx="12.03" ry="27.56" transform="translate(-0.53 0.64) rotate(-0.17)" fill="#fff"></ellipse><path d="M211.07,202.12c-3.4,0-6.57-3-8.93-8.31s-3.6-12.24-3.63-19.66c0-15.45,5.52-28,12.4-28.06h0c3.4,0,6.57,2.95,8.94,8.32s3.6,12.23,3.62,19.65c0,15.45-5.51,28-12.4,28.06ZM210.93,147h0c-6.39,0-11.54,12.2-11.49,27.14,0,7.3,1.28,14.15,3.54,19.29s5.08,7.77,8.1,7.77h0c6.38,0,11.53-12.2,11.49-27.14,0-7.3-1.29-14.15-3.55-19.3S214,147,210.93,147Z" fill="#231f20"></path><path d="M315.1,137.62l-22.28.08.22,72.24,22.29-.08c8.71,0,15.71-16.23,15.65-36.18S323.81,137.59,315.1,137.62Z" fill="#231f20"></path><path d="M293,210.44a.5.5,0,0,1-.35-.14.53.53,0,0,1-.15-.36l-.22-72.24a.49.49,0,0,1,.49-.5l22.29-.08h0c4.42,0,8.54,3.84,11.62,10.84s4.71,16,4.74,25.72c.07,20.2-7.18,36.65-16.15,36.68l-22.29.08Zm.28-72.25.22,71.25,21.78-.08c8.42,0,15.22-16,15.16-35.67,0-9.59-1.68-18.58-4.65-25.33s-6.71-10.24-10.71-10.24h0Z" fill="#231f20"></path><ellipse cx="292.93" cy="173.82" rx="15.77" ry="36.12" transform="translate(-0.53 0.89) rotate(-0.17)" fill="#231f20"></ellipse><path d="M293,210.44c-4.42,0-8.54-3.85-11.62-10.84s-4.71-16-4.74-25.72c-.06-20.2,7.18-36.65,16.15-36.68h0c4.41,0,8.54,3.84,11.62,10.84s4.71,16,4.74,25.72h0c.06,20.2-7.18,36.65-16.16,36.68Zm-.18-72.24h0c-8.42,0-15.22,16-15.16,35.67,0,9.58,1.68,18.58,4.66,25.33S289,209.44,293,209.44h0c8.42,0,15.22-16,15.16-35.68h0c0-9.58-1.69-18.57-4.66-25.32S296.83,138.2,292.84,138.2Z" fill="#231f20"></path><ellipse cx="292.93" cy="173.82" rx="12.03" ry="27.56" transform="matrix(1, 0, 0, 1, -0.53, 0.89)" fill="#fff"></ellipse><path d="M293,201.83c-3.4,0-6.57-3-8.93-8.31s-3.61-12.23-3.63-19.66c-.05-15.44,5.52-28,12.4-28.06h0c3.4,0,6.57,2.95,8.93,8.32s3.6,12.23,3.63,19.66c.05,15.44-5.52,28-12.4,28.05Zm-.14-55.11h0c-6.38,0-11.53,12.2-11.48,27.14,0,7.3,1.28,14.15,3.54,19.29s5.08,7.77,8.1,7.77h0c6.39,0,11.54-12.2,11.49-27.14,0-7.3-1.28-14.15-3.54-19.29S295.88,146.72,292.86,146.72Z" fill="#231f20"></path><path d="M104.85,138.36l-22.28.08.23,72.24,22.28-.08c8.71,0,15.72-16.22,15.66-36.17S113.56,138.33,104.85,138.36Z" fill="#231f20"></path><path d="M82.8,211.18a.5.5,0,0,1-.35-.14.49.49,0,0,1-.15-.36l-.23-72.24a.5.5,0,0,1,.5-.5l22.28-.08h0c4.41,0,8.54,3.85,11.62,10.84s4.71,16,4.74,25.72c.06,20.2-7.19,36.65-16.16,36.68l-22.28.08Zm.27-72.24.23,71.24,21.78-.08c8.42,0,15.22-16,15.16-35.67,0-9.58-1.69-18.58-4.66-25.33-2.91-6.6-6.71-10.24-10.7-10.24h0Z" fill="#231f20"></path><ellipse cx="82.69" cy="174.56" rx="15.77" ry="36.12" transform="translate(-0.53 0.25) rotate(-0.17)" fill="#231f20"></ellipse><path d="M82.77,211.18c-4.41,0-8.53-3.85-11.61-10.84s-4.71-16-4.74-25.72c-.07-20.2,7.18-36.65,16.15-36.68h0c4.41,0,8.53,3.85,11.61,10.84s4.71,16,4.75,25.72h0c.06,20.2-7.19,36.65-16.16,36.68Zm-.17-72.24h0c-8.42,0-15.22,16-15.15,35.67,0,9.59,1.68,18.58,4.65,25.33s6.71,10.24,10.7,10.24h0c8.42,0,15.22-16,15.16-35.67h0c0-9.59-1.69-18.58-4.66-25.33S86.59,138.94,82.6,138.94Z" fill="#231f20"></path><ellipse cx="82.69" cy="174.56" rx="12.03" ry="27.56" transform="translate(-0.53 0.25) rotate(-0.17)" fill="#fff"></ellipse><path d="M82.75,202.58c-3.4,0-6.57-3-8.93-8.32S70.22,182,70.2,174.6c0-15.44,5.51-28,12.4-28.06h0c3.4,0,6.57,3,8.93,8.32s3.6,12.23,3.62,19.66c0,15.44-5.51,28-12.4,28.06Zm-.13-55.12h0c-6.38,0-11.54,12.2-11.49,27.14,0,7.3,1.28,14.15,3.55,19.29s5.08,7.77,8.09,7.77h0c6.38,0,11.54-12.2,11.49-27.14,0-7.3-1.28-14.15-3.55-19.29S85.63,147.46,82.62,147.46Z" fill="#231f20"></path><path d="M349.88,187.86c-.9,2.18-3.21,4.88-9.19,4.9l-83.26.29c-8.52,0-10.72,2.12-15.15-3.43s-11.15-33.65-19.69-42.3-14.85-8.28-22.38,4.59-1.77,41.35-1.77,41.35l-88.17.31c-5.06-3.81-2.54-4.51-4.79-16.31s-8-26-13-31.57-14.54-7.24-21.74,7.72c-7.13,14.81-2.82,37.38-2.73,37.87l-3.15-1.72c-3.16-1.73-4.76-6.93-5.39-9.71s-8.85-6.22-8.87-9.69c0-1.58-.14-6.34,0-11.67,0-.1,0-.21,0-.32a83,83,0,0,1,1.1-12.44q.1-.57.24-1.11a14.46,14.46,0,0,1,1.1-3.3c3.13-6.26,8.49-8,13.22-9.42s5.65-7.67,13.82-16,19.74-21.23,36-24c9.64-1.66,42.1-3.06,70.34-2.42,29.28.68,55.75,2.56,68.35,7.17S291,124.27,291,124.27s20.36,6.47,37,13.3c4.52,1.86,8.25,3.75,10.41,5.52a18.93,18.93,0,0,1,4.65,6.47c4.62,9.59,6.52,25,7.18,31.9.21,2.25.29,3.62.29,3.62A7.19,7.19,0,0,1,349.88,187.86Z" fill="#fff"></path><path d="M171.69,89.28c4.92,0,9.85,0,14.66.16,29.28.68,55.75,2.56,68.35,7.17S291,124.27,291,124.27s20.36,6.47,37,13.3c4.52,1.86,8.25,3.75,10.41,5.52a18.93,18.93,0,0,1,4.65,6.47c4.62,9.59,6.52,25,7.18,31.9.21,2.25.29,3.62.29,3.62a7.19,7.19,0,0,1-.56,2.78c-.9,2.18-3.21,4.88-9.19,4.9l-83.26.29c-3.68,0-6.18.41-8.19.41-2.65,0-4.45-.69-7-3.84-4.44-5.54-11.15-33.65-19.69-42.3-3.78-3.82-7.12-5.88-10.31-5.88-4.05,0-7.87,3.29-12.07,10.47-7.53,12.88-1.77,41.35-1.77,41.35l-88.17.31c-5.06-3.81-2.54-4.51-4.79-16.31s-8-26-13-31.57a11.48,11.48,0,0,0-8.29-4c-4.38,0-9.29,3.09-13.45,11.72-7.13,14.81-2.82,37.38-2.73,37.87l-3.15-1.72c-3.16-1.73-4.76-6.93-5.39-9.71s-8.85-6.22-8.87-9.69c0-1.58-.14-6.34,0-11.67,0-.1,0-.21,0-.32a83,83,0,0,1,1.1-12.44q.1-.57.24-1.11a14.46,14.46,0,0,1,1.1-3.3c3.13-6.26,8.49-8,13.22-9.42s5.65-7.67,13.82-16,19.74-21.23,36-24c8-1.37,31.71-2.58,55.68-2.58m0-.91v0c-22.85,0-47.37,1.14-55.83,2.59C100.37,93.61,89.17,105.17,81,113.61l-1.57,1.62a61.14,61.14,0,0,0-7.82,10c-2,3.08-3.37,5.11-5.61,5.78-4.38,1.3-10.37,3.08-13.78,9.89A16,16,0,0,0,51,144.42c-.09.37-.18.75-.25,1.14a81.26,81.26,0,0,0-1.11,12.59v.3c-.11,4.13,0,7.89,0,10.13,0,.68,0,1.21,0,1.58,0,2.37,2.66,4.39,5.22,6.34,1.62,1.24,3.45,2.64,3.67,3.56.69,3,2.37,8.41,5.84,10.3l2.1,1.15,1.14.61a.87.87,0,0,0,.35.07.92.92,0,0,0,.9-1.08c-.18-1-4.22-23,2.65-37.3,4.46-9.26,9.33-11.2,12.63-11.2a10.41,10.41,0,0,1,7.61,3.7c4.8,5.25,10.54,19.21,12.81,31.12a72.27,72.27,0,0,1,1.12,8.82c.27,3.77.39,5.33,4,8.05a.91.91,0,0,0,.55.18h0l88.18-.31a.9.9,0,0,0,.7-.33.91.91,0,0,0,.19-.76c-.06-.28-5.61-28.28,1.66-40.71,4-6.83,7.58-10,11.28-10,2.81,0,5.88,1.78,9.66,5.61,5,5,9.47,17.3,13.08,27.14,2.51,6.85,4.67,12.76,6.54,15.1,2.8,3.49,4.93,4.17,7.68,4.17.9,0,1.87-.07,3-.16,1.47-.11,3.14-.24,5.2-.25l83.26-.29c6.45,0,9-3,10-5.47a7.92,7.92,0,0,0,.63-3.16s-.08-1.42-.29-3.66c-.76-8-2.71-22.75-7.27-32.22a19.5,19.5,0,0,0-4.89-6.77c-2.08-1.71-5.66-3.62-10.64-5.66-15.56-6.41-34.63-12.56-36.82-13.26-2.25-2.18-24.18-23.24-36.42-27.72-11.1-4-33.55-6.41-68.65-7.22-4.67-.11-9.61-.16-14.68-.16Z" fill="#231f20"></path><path d="M214.84,124.54,186.36,95s54.88.5,67.51,5.55c12.85,5.14,29.52,23.75,29.52,23.75Z" fill="#68e1fd"></path><path d="M133.86,124.83l5.27-29s32.3-1.5,39.77-.14,29.58,28.84,29.58,28.84Z" fill="#68e1fd"></path><path d="M130.87,124.84l5.27-29s-21.86,1.29-29,4.1c-12,4.73-27.36,25-27.36,25Z" fill="#68e1fd"></path><path d="M129,186.89a.45.45,0,0,1-.46-.44c-.05-1.8-1.23-44-.19-49.37a30.42,30.42,0,0,1,3.6-9.48.46.46,0,0,1,.63-.14.44.44,0,0,1,.14.62,30.51,30.51,0,0,0-3.48,9.18c-1,5.22.2,48.73.21,49.16a.44.44,0,0,1-.44.47Z" fill="#d1d3d4"></path><path d="M271.92,137.77l-38.75.14c-2.41,0,2.34,8.15,7.71,10.39s30.29,2,31.54.06S274.92,139.67,271.92,137.77Z" fill="#68e1fd"></path><path d="M343,149.56c-8.29.25-17.15-.24-17.89-1.39-1.27-1.95-2.56-8.67.43-10.59h2.4c4.52,1.86,8.25,3.75,10.41,5.52A18.93,18.93,0,0,1,343,149.56Z" fill="#68e1fd"></path><path d="M57.44,144.6s-.28,10.77-2.32,12.34a9,9,0,0,1-4.54,1.23,83,83,0,0,1,1.1-12.44q.1-.57.24-1.11Z" fill="#68e1fd"></path><path d="M116.74,186.94a.46.46,0,0,1,0-.92l78.53-.27a.46.46,0,0,1,.46.45.46.46,0,0,1-.46.46l-78.53.28Z" fill="#d1d3d4"></path><path d="M245.07,175.11a.46.46,0,0,1,0-.91l100.77-.36h0a.46.46,0,0,1,0,.92l-100.76.35Z" fill="#d1d3d4"></path><path d="M250.31,188.21s-6.49-7.62-3.81-8.15,28.4,2.68,29.19,4a10.36,10.36,0,0,1,.8,4.08Z" fill="#231f20"></path><path d="M250.31,188.71a.49.49,0,0,1-.38-.18c-.87-1-5.17-6.21-4.5-8.16a1.24,1.24,0,0,1,1-.8c1.76-.36,28.55,2.31,29.71,4.21a10.7,10.7,0,0,1,.87,4.34.5.5,0,0,1-.5.5l-26.18.09Zm-2.62-8.23a5.87,5.87,0,0,0-1.09.07c-.18,0-.21.1-.22.15-.35,1,2.17,4.64,4.16,7l25.43-.09a8.45,8.45,0,0,0-.71-3.32C274,183.3,253.28,180.48,247.69,180.48Z" fill="#231f20"></path><path d="M349.88,187.86l-11.44,0a10.21,10.21,0,0,1,.78-4.08c.33-.56,5.23-1.51,10.93-2.36.21,2.25.29,3.62.29,3.62A7.19,7.19,0,0,1,349.88,187.86Z" fill="#231f20"></path><path d="M338.44,188.4a.47.47,0,0,1-.35-.15.51.51,0,0,1-.15-.35,10.59,10.59,0,0,1,.85-4.34c.18-.3.59-1,11.29-2.59a.45.45,0,0,1,.38.1.51.51,0,0,1,.19.34c.21,2.26.29,3.64.29,3.64a7.84,7.84,0,0,1-.6,3,.51.51,0,0,1-.46.31l-11.44,0Zm11.44-.54h0ZM349.7,182c-7.31,1.11-9.79,1.84-10.09,2.1a8.71,8.71,0,0,0-.66,3.27l10.58,0a6.84,6.84,0,0,0,.41-2.26h0S349.87,184,349.7,182Z" fill="#231f20"></path><path d="M331.23,169l-61.9.22a2.55,2.55,0,0,1-2.38-2l-2.48-9.27c-.5-1.87.69-3.78,2.36-3.79l61.9-.22a2.57,2.57,0,0,1,2.38,2.05l2.48,9.26C334.09,167.08,332.9,169,331.23,169Z" fill="#fff"></path><path d="M269.32,169.71a3.06,3.06,0,0,1-2.86-2.41L264,158a3.76,3.76,0,0,1,.61-3.26,2.85,2.85,0,0,1,2.23-1.16l61.9-.22h0a3.06,3.06,0,0,1,2.86,2.42l2.47,9.26a3.75,3.75,0,0,1-.61,3.26,2.8,2.8,0,0,1-2.23,1.16l-61.9.22Zm59.42-15.32h0l-61.91.22a1.83,1.83,0,0,0-1.44.77,2.8,2.8,0,0,0-.44,2.4l2.48,9.26a2.07,2.07,0,0,0,1.89,1.67h0l61.91-.22h0a1.82,1.82,0,0,0,1.44-.76,2.81,2.81,0,0,0,.44-2.4l-2.48-9.26A2.08,2.08,0,0,0,328.74,154.39Z" fill="#d1d3d4"></path><path d="M143.87,136.94a3.77,3.77,0,0,1-3.77-3.75V133a.46.46,0,0,1,.46-.45l20.16-.08a.53.53,0,0,1,.33.14.46.46,0,0,1,.13.32v.17a3.76,3.76,0,0,1-3.75,3.77h0l-13.55.05Zm13.56-.5h0Zm-16.4-3a2.86,2.86,0,0,0,2.84,2.55h0l13.55-.05a2.85,2.85,0,0,0,2.82-2.57Z" fill="#d1d3d4"></path><path d="M82.44,135.42a3.06,3.06,0,0,1-2.16-.89,3,3,0,0,1-.91-2.17v-.86a.46.46,0,0,1,.45-.46l12.61,0h0a.46.46,0,0,1,.32.13.45.45,0,0,1,.14.32v.86a3.08,3.08,0,0,1-3.06,3.09l-7.38,0ZM80.28,132v.39a2.17,2.17,0,0,0,2.16,2.16h0l7.37,0h0A2.17,2.17,0,0,0,92,132.31v-.4Z" fill="#d1d3d4"></path><path d="M132.6,211.17c-45.91,0-80.77,0-82-.07a.46.46,0,0,1-.44-.47.45.45,0,0,1,.48-.44c3.71.15,306,0,309,0a.46.46,0,1,1,0,.92C351.42,211.11,221.37,211.17,132.6,211.17Z" fill="#231f20"></path></svg>